{
    "asset" : {
        "generator" : "Khronos glTF Blender I/O v3.2.40",
        "version" : "2.0"
    },
    "scene" : 0,
    "scenes" : [
        {
            "name" : "Scene",
            "nodes" : [
                0,
                1,
                2,
                3
            ]
        }
    ],
    "nodes" : [
        {
            "mesh" : 0,
            "name" : "Clock"
        },
        {
            "mesh" : 1,
            "name" : "MinuteTent"
        },
        {
            "mesh" : 2,
            "name" : "HourTent"
        },
        {
            "mesh" : 3,
            "name" : "Ziffernblatt"
        }
    ],
    "materials" : [
        {
            "doubleSided" : true,
            "name" : "Clock_Outside",
            "pbrMetallicRoughness" : {
                "baseColorFactor" : [
                    0.0006937960279174149,
                    0,
                    0.00424186559394002,
                    1
                ],
                "metallicFactor" : 0,
                "roughnessFactor" : 0.5
            }
        },
        {
            "doubleSided" : true,
            "name" : "Minute_Tent",
            "pbrMetallicRoughness" : {
                "baseColorFactor" : [
                    0.007207362446933985,
                    0,
                    0.5382252335548401,
                    1
                ],
                "metallicFactor" : 0,
                "roughnessFactor" : 0.5
            }
        },
        {
            "doubleSided" : true,
            "name" : "HourTent",
            "pbrMetallicRoughness" : {
                "baseColorFactor" : [
                    0.8000000715255737,
                    0,
                    0,
                    1
                ],
                "metallicFactor" : 0,
                "roughnessFactor" : 0.5
            }
        },
        {
            "doubleSided" : true,
            "name" : "Ziffernblatt",
            "pbrMetallicRoughness" : {
                "baseColorTexture" : {
                    "index" : 0
                },
                "metallicFactor" : 0,
                "roughnessFactor" : 0.5
            }
        }
    ],
    "meshes" : [
        {
            "name" : "Circle",
            "primitives" : [
                {
                    "attributes" : {
                        "POSITION" : 0,
                        "NORMAL" : 1,
                        "TEXCOORD_0" : 2
                    },
                    "indices" : 3,
                    "material" : 0
                }
            ]
        },
        {
            "name" : "Circle.001",
            "primitives" : [
                {
                    "attributes" : {
                        "POSITION" : 4,
                        "NORMAL" : 5,
                        "TEXCOORD_0" : 6
                    },
                    "indices" : 7,
                    "material" : 1
                }
            ]
        },
        {
            "name" : "Circle.002",
            "primitives" : [
                {
                    "attributes" : {
                        "POSITION" : 8,
                        "NORMAL" : 9,
                        "TEXCOORD_0" : 10
                    },
                    "indices" : 11,
                    "material" : 2
                }
            ]
        },
        {
            "name" : "Circle.003",
            "primitives" : [
                {
                    "attributes" : {
                        "POSITION" : 12,
                        "NORMAL" : 13,
                        "TEXCOORD_0" : 14
                    },
                    "indices" : 15,
                    "material" : 3
                }
            ]
        }
    ],
    "textures" : [
        {
            "sampler" : 0,
            "source" : 0
        }
    ],
    "images" : [
        {
            "bufferView" : 16,
            "mimeType" : "image/jpeg",
            "name" : "Clock_intrans"
        }
    ],
    "accessors" : [
        {
            "bufferView" : 0,
            "componentType" : 5126,
            "count" : 799,
            "max" : [
                1,
                1,
                0.17349515855312347
            ],
            "min" : [
                -1,
                -1,
                -6.181723222198343e-08
            ],
            "type" : "VEC3"
        },
        {
            "bufferView" : 1,
            "componentType" : 5126,
            "count" : 799,
            "type" : "VEC3"
        },
        {
            "bufferView" : 2,
            "componentType" : 5126,
            "count" : 799,
            "type" : "VEC2"
        },
        {
            "bufferView" : 3,
            "componentType" : 5123,
            "count" : 1242,
            "type" : "SCALAR"
        },
        {
            "bufferView" : 4,
            "componentType" : 5126,
            "count" : 224,
            "max" : [
                0.04396745562553406,
                0.6075700521469116,
                0.1376798301935196
            ],
            "min" : [
                -0.04396747052669525,
                -0.043967459350824356,
                0.12676608562469482
            ],
            "type" : "VEC3"
        },
        {
            "bufferView" : 5,
            "componentType" : 5126,
            "count" : 224,
            "type" : "VEC3"
        },
        {
            "bufferView" : 6,
            "componentType" : 5126,
            "count" : 224,
            "type" : "VEC2"
        },
        {
            "bufferView" : 7,
            "componentType" : 5123,
            "count" : 378,
            "type" : "SCALAR"
        },
        {
            "bufferView" : 8,
            "componentType" : 5126,
            "count" : 288,
            "max" : [
                0.043967410922050476,
                0.34365957975387573,
                0.1478378176689148
            ],
            "min" : [
                -0.04396742209792137,
                -0.04396741837263107,
                0.13692407310009003
            ],
            "type" : "VEC3"
        },
        {
            "bufferView" : 9,
            "componentType" : 5126,
            "count" : 288,
            "type" : "VEC3"
        },
        {
            "bufferView" : 10,
            "componentType" : 5126,
            "count" : 288,
            "type" : "VEC2"
        },
        {
            "bufferView" : 11,
            "componentType" : 5123,
            "count" : 474,
            "type" : "SCALAR"
        },
        {
            "bufferView" : 12,
            "componentType" : 5126,
            "count" : 413,
            "max" : [
                0.7737719416618347,
                0.7737720012664795,
                0.12497615069150925
            ],
            "min" : [
                -0.7737720012664795,
                -0.7737720012664795,
                0.12497604638338089
            ],
            "type" : "VEC3"
        },
        {
            "bufferView" : 13,
            "componentType" : 5126,
            "count" : 413,
            "type" : "VEC3"
        },
        {
            "bufferView" : 14,
            "componentType" : 5126,
            "count" : 413,
            "type" : "VEC2"
        },
        {
            "bufferView" : 15,
            "componentType" : 5123,
            "count" : 666,
            "type" : "SCALAR"
        }
    ],
    "bufferViews" : [
        {
            "buffer" : 0,
            "byteLength" : 9588,
            "byteOffset" : 0
        },
        {
            "buffer" : 0,
            "byteLength" : 9588,
            "byteOffset" : 9588
        },
        {
            "buffer" : 0,
            "byteLength" : 6392,
            "byteOffset" : 19176
        },
        {
            "buffer" : 0,
            "byteLength" : 2484,
            "byteOffset" : 25568
        },
        {
            "buffer" : 0,
            "byteLength" : 2688,
            "byteOffset" : 28052
        },
        {
            "buffer" : 0,
            "byteLength" : 2688,
            "byteOffset" : 30740
        },
        {
            "buffer" : 0,
            "byteLength" : 1792,
            "byteOffset" : 33428
        },
        {
            "buffer" : 0,
            "byteLength" : 756,
            "byteOffset" : 35220
        },
        {
            "buffer" : 0,
            "byteLength" : 3456,
            "byteOffset" : 35976
        },
        {
            "buffer" : 0,
            "byteLength" : 3456,
            "byteOffset" : 39432
        },
        {
            "buffer" : 0,
            "byteLength" : 2304,
            "byteOffset" : 42888
        },
        {
            "buffer" : 0,
            "byteLength" : 948,
            "byteOffset" : 45192
        },
        {
            "buffer" : 0,
            "byteLength" : 4956,
            "byteOffset" : 46140
        },
        {
            "buffer" : 0,
            "byteLength" : 4956,
            "byteOffset" : 51096
        },
        {
            "buffer" : 0,
            "byteLength" : 3304,
            "byteOffset" : 56052
        },
        {
            "buffer" : 0,
            "byteLength" : 1332,
            "byteOffset" : 59356
        },
        {
            "buffer" : 0,
            "byteLength" : 54783,
            "byteOffset" : 60688
        }
    ],
    "samplers" : [
        {
            "magFilter" : 9729,
            "minFilter" : 9987
        }
    ],
    "buffers" : [
        {
            "byteLength" : 115472,
            "uri" : "data:application/octet-stream;base64,"
        }
    ]
}
